<svg id="Capa_1" data-name="Capa 1" xmlns="http://www.w3.org/2000/svg" viewBox="0 0 491.78 138.317">
  <defs>
    <style>
      .cls-1 {
        fill: #014172;
      }

      .cls-2 {
        fill: #3871a8;
      }

      .cls-3 {
        fill: #21629e;
      }

      .cls-4 {
        fill: #4f91c3;
      }

      .cls-5 {
        fill: #fff;
      }
    </style>
  </defs>
  <title>5f7fd9c1-06a5-4b1c-b51a-f5a58122b57a</title>
  <g>
    <polygon class="cls-1" points="31.789 121.634 59.354 90.383 41.629 53.81 0.16 53.328 31.789 121.634"/>
    <polygon class="cls-2" points="0 49.395 40.39 50.585 95.664 50.937 122.883 20.185 24.625 17.187 0 49.395"/>
    <polygon class="cls-3" points="158.884 90.582 126.403 22.079 98.571 53.274 115.883 89.888 158.884 90.582"/>
    <polygon class="cls-4" points="62.87 92.423 34.265 124.194 135.422 123.356 159.364 94.486 62.87 92.423"/>
    <g>
      <path class="cls-5" d="M227.073,67.426a12.571,12.571,0,0,0-1.275-5.791,13.535,13.535,0,0,0-3.56-4.357,25.6,25.6,0,0,0-5.366-3.294q-3.083-1.434-6.589-2.71-3.3-.957-6.96-2.338a38.385,38.385,0,0,1-6.748-3.294,20.082,20.082,0,0,1-5.1-4.41,8.79,8.79,0,0,1-2.019-5.686,12.636,12.636,0,0,1,1.86-6.748,18.228,18.228,0,0,1,4.729-5.153,22.552,22.552,0,0,1,6.429-3.294,22.233,22.233,0,0,1,6.96-1.169,24.83,24.83,0,0,1,9.511,1.966,23.97,23.97,0,0,1,4.676,2.656,22.308,22.308,0,0,1,4.2,3.985,1.536,1.536,0,0,1,0,2.231,2.05,2.05,0,0,1-1.913.744,1.668,1.668,0,0,1-1.169-.851,15.668,15.668,0,0,0-3.719-3.879,18.632,18.632,0,0,0-4.091-2.231,18.076,18.076,0,0,0-3.985-1.062,25.856,25.856,0,0,0-3.507-.266,22.822,22.822,0,0,0-5.313.69,16.919,16.919,0,0,0-5.313,2.285,14.073,14.073,0,0,0-4.091,4.091,10.652,10.652,0,0,0-1.647,6,5.965,5.965,0,0,0,1.647,4.145,16.95,16.95,0,0,0,4.145,3.241,34.383,34.383,0,0,0,5.419,2.5q2.922,1.063,5.366,1.913,4.887,1.913,8.767,3.772a29.668,29.668,0,0,1,6.536,4.145,15.734,15.734,0,0,1,4.038,5.207,16.176,16.176,0,0,1,1.381,6.96,17.2,17.2,0,0,1-1.753,7.705,19.638,19.638,0,0,1-4.729,6.163,23.834,23.834,0,0,1-6.748,4.145,20.739,20.739,0,0,1-7.917,1.541,27.087,27.087,0,0,1-6.164-.744A29.181,29.181,0,0,1,197,84.11a25.907,25.907,0,0,1-5.207-3.295,12.687,12.687,0,0,1-3.507-4.356,1.931,1.931,0,0,1,0-1.966,1.689,1.689,0,0,1,1.488-.8,1.857,1.857,0,0,1,1.7.85,11.252,11.252,0,0,0,3.241,3.826,23.661,23.661,0,0,0,4.729,2.869,28.316,28.316,0,0,0,5.207,1.807,20.355,20.355,0,0,0,4.676.637,18.244,18.244,0,0,0,6.588-1.222,18.773,18.773,0,0,0,5.685-3.4,16.674,16.674,0,0,0,3.985-5.154A14.3,14.3,0,0,0,227.073,67.426Z"/>
      <path class="cls-5" d="M250.132,20.987a1.7,1.7,0,1,1,3.4,0V85.279a1.7,1.7,0,1,1-3.4,0Z"/>
      <path class="cls-5" d="M276.484,20.987a1.707,1.707,0,0,1,1.169-1.594,1.479,1.479,0,0,1,1.222.106,2.333,2.333,0,0,1,.9.851l41.657,59.615V20.987a1.7,1.7,0,1,1,3.4,0V85.279a1.5,1.5,0,0,1-1.7,1.7,1.909,1.909,0,0,1-1.488-.744L279.885,26.407V85.279a1.7,1.7,0,0,1-3.4,0Z"/>
      <path class="cls-5" d="M378.712,22.688a29.645,29.645,0,0,0-11.9,2.391,30.219,30.219,0,0,0-9.617,6.535,31.136,31.136,0,0,0-6.482,9.724,30.689,30.689,0,0,0,0,23.75,30.342,30.342,0,0,0,16.1,16.1,29.646,29.646,0,0,0,11.9,2.392A31.281,31.281,0,0,0,392.1,80.6a27.823,27.823,0,0,0,10.521-8.4,1.429,1.429,0,0,1,1.275-.638,1.5,1.5,0,0,1,1.7,1.7,2.077,2.077,0,0,1-.425,1.063,32.523,32.523,0,0,1-11.53,9.245,33.555,33.555,0,0,1-14.931,3.4,32.905,32.905,0,0,1-13.177-2.657,33.756,33.756,0,0,1-17.959-17.959,33.794,33.794,0,0,1-1.116-23.219,34.482,34.482,0,0,1,10.733-16.1,31.96,31.96,0,0,1,8.342-5.1,29.253,29.253,0,0,1,6.323-2.02,34.332,34.332,0,0,1,6.642-.638,34.837,34.837,0,0,1,13.283,2.6,31.333,31.333,0,0,1,10.945,7.386,5.232,5.232,0,0,1,1.01,1.223,2.006,2.006,0,0,1,.159.8q0,1.488-1.594,1.487a1.641,1.641,0,0,1-.744-.159,6.227,6.227,0,0,1-1.169-1.01,30.65,30.65,0,0,0-21.679-8.926Z"/>
      <path class="cls-5" d="M453.737,19.287a32.942,32.942,0,0,1,13.177,2.657A34.143,34.143,0,0,1,484.979,40.01a34.011,34.011,0,0,1,0,26.354A33.654,33.654,0,0,1,477.7,77.1a34.72,34.72,0,0,1-10.786,7.226,34,34,0,0,1-26.354,0A33.748,33.748,0,0,1,422.6,66.363a34,34,0,0,1,0-26.354,34.709,34.709,0,0,1,7.226-10.786,33.632,33.632,0,0,1,10.733-7.279A32.935,32.935,0,0,1,453.737,19.287Zm0,3.4a29.65,29.65,0,0,0-11.9,2.391,30.229,30.229,0,0,0-9.617,6.535,31.15,31.15,0,0,0-6.481,9.724,30.677,30.677,0,0,0,0,23.75,30.336,30.336,0,0,0,16.1,16.1,30.68,30.68,0,0,0,23.751,0,31.147,31.147,0,0,0,9.724-6.482,30.208,30.208,0,0,0,6.535-9.617,30.689,30.689,0,0,0,0-23.75,30.439,30.439,0,0,0-16.259-16.259A29.77,29.77,0,0,0,453.737,22.688Z"/>
    </g>
    <path class="cls-5" d="M225.586,73.908a16.673,16.673,0,0,1-3.985,5.154,18.786,18.786,0,0,1-5.686,3.4,18.245,18.245,0,0,1-6.588,1.221,20.353,20.353,0,0,1-4.676-.637,28.321,28.321,0,0,1-5.207-1.806,23.655,23.655,0,0,1-4.729-2.87,11.243,11.243,0,0,1-3.24-3.825,1.859,1.859,0,0,0-1.7-.85,1.69,1.69,0,0,0-1.487.8,1.934,1.934,0,0,0,0,1.966,12.685,12.685,0,0,0,3.507,4.357A25.883,25.883,0,0,0,197,84.11a29.164,29.164,0,0,0,6.058,2.125,27.08,27.08,0,0,0,6.163.744,20.731,20.731,0,0,0,7.917-1.541,23.859,23.859,0,0,0,6.748-4.144,19.649,19.649,0,0,0,4.728-6.164,17.2,17.2,0,0,0,1.754-7.7,16.18,16.18,0,0,0-1.382-6.961,15.738,15.738,0,0,0-4.038-5.207,29.658,29.658,0,0,0-6.535-4.144q-3.881-1.858-8.767-3.772-2.445-.851-5.367-1.913a34.553,34.553,0,0,1-5.42-2.5,16.963,16.963,0,0,1-4.144-3.241,5.965,5.965,0,0,1-1.647-4.144,10.651,10.651,0,0,1,1.647-6,14.071,14.071,0,0,1,4.092-4.092,16.906,16.906,0,0,1,5.313-2.284,22.823,22.823,0,0,1,5.314-.691,25.827,25.827,0,0,1,3.506.266,18,18,0,0,1,3.985,1.063,18.588,18.588,0,0,1,4.092,2.231,15.653,15.653,0,0,1,3.718,3.879,1.667,1.667,0,0,0,1.169.85,2.047,2.047,0,0,0,1.913-.744,1.536,1.536,0,0,0,0-2.232,22.283,22.283,0,0,0-4.2-3.984,23.977,23.977,0,0,0-4.676-2.657,24.849,24.849,0,0,0-9.51-1.966,22.241,22.241,0,0,0-6.961,1.169,22.537,22.537,0,0,0-6.429,3.294,18.231,18.231,0,0,0-4.729,5.154,12.631,12.631,0,0,0-1.86,6.748,8.79,8.79,0,0,0,2.02,5.685,20.059,20.059,0,0,0,5.1,4.41,38.427,38.427,0,0,0,6.748,3.294q3.666,1.383,6.96,2.338,3.507,1.275,6.589,2.71a25.6,25.6,0,0,1,5.366,3.294,13.523,13.523,0,0,1,3.56,4.357,12.577,12.577,0,0,1,1.275,5.792A14.3,14.3,0,0,1,225.586,73.908Z"/>
    <path class="cls-5" d="M250.164,85.279a1.7,1.7,0,1,0,3.4,0V20.987a1.7,1.7,0,0,0-3.4,0Z"/>
    <path class="cls-5" d="M276.517,85.279a1.7,1.7,0,1,0,3.4,0V26.407L321.68,86.236a1.91,1.91,0,0,0,1.488.743,1.5,1.5,0,0,0,1.7-1.7V20.987a1.7,1.7,0,0,0-3.4,0V79.966L279.812,20.35a2.351,2.351,0,0,0-.9-.85,1.479,1.479,0,0,0-1.223-.106,1.706,1.706,0,0,0-1.169,1.593Z"/>
    <path class="cls-5" d="M390.6,25.026a30.248,30.248,0,0,1,9.883,6.589,6.224,6.224,0,0,0,1.169,1.009,1.634,1.634,0,0,0,.744.16q1.593,0,1.594-1.488a2,2,0,0,0-.16-.8,5.236,5.236,0,0,0-1.009-1.222,31.327,31.327,0,0,0-10.946-7.386,34.822,34.822,0,0,0-13.283-2.6,34.393,34.393,0,0,0-6.641.637,29.328,29.328,0,0,0-6.324,2.019,31.937,31.937,0,0,0-8.341,5.1,34.461,34.461,0,0,0-10.733,16.1,33.788,33.788,0,0,0,1.115,23.219A33.764,33.764,0,0,0,365.63,84.323a32.92,32.92,0,0,0,13.178,2.657,33.55,33.55,0,0,0,14.93-3.4,32.517,32.517,0,0,0,11.53-9.245,2.077,2.077,0,0,0,.425-1.063,1.5,1.5,0,0,0-1.7-1.7,1.427,1.427,0,0,0-1.276.638A27.837,27.837,0,0,1,392.2,80.6a31.29,31.29,0,0,1-13.39,2.975,29.638,29.638,0,0,1-11.9-2.391,30.344,30.344,0,0,1-16.1-16.1,30.687,30.687,0,0,1,0-23.751,31.177,31.177,0,0,1,6.483-9.723,30.208,30.208,0,0,1,9.617-6.536,29.638,29.638,0,0,1,11.9-2.39A30.5,30.5,0,0,1,390.6,25.026Z"/>
    <path class="cls-5" d="M465.734,25.079a30.444,30.444,0,0,1,16.259,16.259,30.684,30.684,0,0,1,0,23.75,30.208,30.208,0,0,1-6.536,9.617,31.177,31.177,0,0,1-9.723,6.483,30.687,30.687,0,0,1-23.751,0,30.344,30.344,0,0,1-16.1-16.1,30.684,30.684,0,0,1,0-23.75,31.184,31.184,0,0,1,6.482-9.724,30.227,30.227,0,0,1,9.617-6.535,30.687,30.687,0,0,1,23.751,0Zm-25.026-3.135a33.65,33.65,0,0,0-10.732,7.279,34.763,34.763,0,0,0-7.227,10.786,34.015,34.015,0,0,0,0,26.354,33.764,33.764,0,0,0,17.959,17.959,34,34,0,0,0,26.354,0A34.735,34.735,0,0,0,477.849,77.1a33.644,33.644,0,0,0,7.279-10.733,34.015,34.015,0,0,0,0-26.354,34.137,34.137,0,0,0-18.066-18.065,34,34,0,0,0-26.354,0Z"/>
    <g>
      <path class="cls-5" d="M428.323,101.357a1.15,1.15,0,0,1,1.162-1.162h11.4a1.162,1.162,0,1,1,0,2.324H430.647v8.359h6.822a1.162,1.162,0,1,1,0,2.323h-6.822v8.622H440.88a1.162,1.162,0,1,1,0,2.324h-11.4a1.152,1.152,0,0,1-1.162-1.162Z"/>
      <path class="cls-5" d="M448.49,101.395a1.189,1.189,0,0,1,.337-.844,1.1,1.1,0,0,1,.824-.355H455.8a6.225,6.225,0,0,1,2.511.506,6.576,6.576,0,0,1,3.431,3.43,6.323,6.323,0,0,1,.094,4.724,6.747,6.747,0,0,1-1.125,1.893A6.533,6.533,0,0,1,459,112.172a6.178,6.178,0,0,1-2.118.769l5.7,9.259a3.118,3.118,0,0,1,.206.412,1.256,1.256,0,0,1,.094.487,1.17,1.17,0,0,1-.281.675.945.945,0,0,1-.806.375,1.091,1.091,0,0,1-.618-.187,1.586,1.586,0,0,1-.469-.487l-6.41-10.459h-3.486v9.972a1.162,1.162,0,1,1-2.323,0Zm2.323,1.125v8.172H455.8a3.98,3.98,0,0,0,1.574-.319,4.106,4.106,0,0,0,1.312-.881,4.158,4.158,0,0,0,.881-1.293,3.949,3.949,0,0,0,.319-1.593,4,4,0,0,0-.319-1.575,4.1,4.1,0,0,0-2.192-2.192,4,4,0,0,0-1.574-.318Z"/>
      <path class="cls-5" d="M469.856,101.395a1.189,1.189,0,0,1,.337-.844,1.1,1.1,0,0,1,.825-.355h6.109a6.226,6.226,0,0,1,2.512.506,6.569,6.569,0,0,1,3.43,3.43,6.125,6.125,0,0,1,.507,2.475,6.375,6.375,0,0,1-1.894,4.535,6.722,6.722,0,0,1-2.043,1.368,6.21,6.21,0,0,1-2.512.506H472.18v9.972a1.162,1.162,0,1,1-2.324,0Zm2.324,1.125v8.172h4.947a3.984,3.984,0,0,0,1.575-.319,4.106,4.106,0,0,0,1.312-.881,4.174,4.174,0,0,0,.881-1.293,3.949,3.949,0,0,0,.318-1.593,4,4,0,0,0-.318-1.575,4.1,4.1,0,0,0-2.192-2.192,4,4,0,0,0-1.575-.318Z"/>
    </g>
  </g>
</svg>
